<svg width="353" height="353" viewBox="0 0 353 353" fill="none" xmlns="http://www.w3.org/2000/svg">
<path fill-rule="evenodd" clip-rule="evenodd" d="M259.628 93.3084C273.362 107.043 295.638 107.029 309.39 93.2769C323.142 79.5252 323.156 57.2488 309.422 43.5145C295.687 29.7802 273.411 29.7943 259.659 43.546C245.908 57.2977 245.893 79.5741 259.628 93.3084ZM270.809 116.938L267.565 113.694C261.269 111.366 255.342 107.696 250.291 102.645C245.241 97.5939 241.59 91.687 239.242 85.371L235.998 82.1268C221.583 67.7126 198.18 67.7274 183.747 82.1598L178.982 86.9255C200.331 89.6219 220.98 99.1672 237.375 115.561C253.769 131.956 263.314 152.605 266.011 173.955L270.776 169.189C285.209 154.756 285.223 131.353 270.809 116.938Z" fill="url(#paint0_linear_4_53)"/>
<path fill-rule="evenodd" clip-rule="evenodd" d="M259.524 259.111C245.79 272.845 245.804 295.122 259.556 308.873C273.307 322.625 295.584 322.639 309.318 308.905C323.052 295.171 323.038 272.894 309.286 259.142C295.535 245.391 273.258 245.377 259.524 259.111ZM235.894 270.293L239.138 267.048C241.467 260.752 245.137 254.825 250.188 249.775C255.239 244.724 261.145 241.073 267.461 238.725L270.706 235.481C285.12 221.067 285.105 197.663 270.673 183.23L265.907 178.465C263.211 199.814 253.665 220.464 237.271 236.858C220.877 253.252 200.227 262.797 178.878 265.494L183.644 270.259C198.076 284.692 221.48 284.707 235.894 270.293Z" fill="url(#paint1_linear_4_53)"/>
<path fill-rule="evenodd" clip-rule="evenodd" d="M93.6048 258.891C79.8705 245.156 57.5941 245.17 43.8424 258.922C30.0907 272.674 30.0766 294.95 43.8109 308.684C57.5452 322.419 79.8216 322.405 93.5733 308.653C107.325 294.901 107.339 272.625 93.6048 258.891ZM82.4232 235.26L85.6674 238.505C91.9639 240.833 97.8903 244.503 102.941 249.554C107.992 254.605 111.643 260.512 113.991 266.828L117.235 270.072C131.649 284.486 155.053 284.472 169.485 270.039L174.251 265.273C152.901 262.577 132.252 253.032 115.858 236.638C99.4636 220.243 89.9183 199.594 87.2218 178.244L82.4562 183.01C68.0238 197.442 68.009 220.846 82.4232 235.26Z" fill="url(#paint2_linear_4_53)"/>
<path fill-rule="evenodd" clip-rule="evenodd" d="M93.7214 93.3085C107.456 79.5742 107.442 57.2978 93.6899 43.5461C79.9383 29.7944 57.6618 29.7803 43.9276 43.5146C30.1933 57.2489 30.2074 79.5253 43.959 93.277C57.7107 107.029 79.9871 107.043 93.7214 93.3085ZM117.351 82.1269L114.107 85.3711C111.779 91.6676 108.109 97.594 103.058 102.645C98.007 107.696 92.1 111.346 85.784 113.694L82.5398 116.939C68.1256 131.353 68.1404 154.757 82.5729 169.189L87.3385 173.955C90.035 152.605 99.5803 131.956 115.974 115.561C132.369 99.1673 153.018 89.622 174.368 86.9256L169.602 82.1599C155.17 67.7275 131.766 67.7127 117.351 82.1269Z" fill="url(#paint3_linear_4_53)"/>
<defs>
<linearGradient id="paint0_linear_4_53" x1="309.422" y1="43.5145" x2="222.496" y2="130.44" gradientUnits="userSpaceOnUse">
<stop stop-color="#FF9B32"/>
<stop offset="1" stop-color="#FE0F69"/>
</linearGradient>
<linearGradient id="paint1_linear_4_53" x1="309.318" y1="308.905" x2="222.392" y2="221.979" gradientUnits="userSpaceOnUse">
<stop stop-color="#8526D8"/>
<stop offset="1" stop-color="#2BF7D3"/>
</linearGradient>
<linearGradient id="paint2_linear_4_53" x1="43.8109" y1="308.684" x2="130.736" y2="221.759" gradientUnits="userSpaceOnUse">
<stop stop-color="#FE0C69"/>
<stop offset="1" stop-color="#FFB926"/>
</linearGradient>
<linearGradient id="paint3_linear_4_53" x1="43.9276" y1="43.5146" x2="130.853" y2="130.44" gradientUnits="userSpaceOnUse">
<stop stop-color="#2AF9D3"/>
<stop offset="1" stop-color="#7522C4"/>
</linearGradient>
</defs>
</svg>
