<svg width="1348" height="353" viewBox="0 0 1348 353" fill="none" xmlns="http://www.w3.org/2000/svg">
<path fill-rule="evenodd" clip-rule="evenodd" d="M259.628 93.3084C273.362 107.043 295.638 107.029 309.39 93.2769C323.142 79.5253 323.156 57.2488 309.422 43.5145C295.687 29.7803 273.411 29.7944 259.659 43.546C245.907 57.2977 245.893 79.5741 259.628 93.3084ZM270.809 116.938L267.565 113.694C261.269 111.366 255.342 107.696 250.291 102.645C245.241 97.594 241.59 91.687 239.242 85.371L235.998 82.1268C221.583 67.7126 198.18 67.7274 183.747 82.1599L178.981 86.9255C200.331 89.622 220.98 99.1673 237.375 115.561C253.769 131.956 263.314 152.605 266.01 173.955L270.776 169.189C285.209 154.757 285.223 131.353 270.809 116.938Z" fill="url(#paint0_linear_4_57)"/>
<path fill-rule="evenodd" clip-rule="evenodd" d="M259.524 259.111C245.79 272.845 245.804 295.122 259.556 308.873C273.307 322.625 295.584 322.639 309.318 308.905C323.052 295.171 323.038 272.894 309.286 259.142C295.535 245.391 273.258 245.377 259.524 259.111ZM235.894 270.293L239.138 267.048C241.467 260.752 245.137 254.825 250.188 249.775C255.239 244.724 261.146 241.073 267.462 238.725L270.706 235.481C285.12 221.067 285.105 197.663 270.673 183.23L265.907 178.465C263.211 199.814 253.665 220.464 237.271 236.858C220.877 253.252 200.227 262.797 178.878 265.494L183.644 270.259C198.076 284.692 221.48 284.707 235.894 270.293Z" fill="url(#paint1_linear_4_57)"/>
<path fill-rule="evenodd" clip-rule="evenodd" d="M93.6048 258.891C79.8705 245.156 57.594 245.17 43.8424 258.922C30.0907 272.674 30.0766 294.95 43.8109 308.684C57.5452 322.419 79.8216 322.405 93.5733 308.653C107.325 294.901 107.339 272.625 93.6048 258.891ZM82.4232 235.261L85.6673 238.505C91.9639 240.833 97.8903 244.503 102.941 249.554C107.992 254.605 111.643 260.512 113.991 266.828L117.235 270.072C131.649 284.486 155.053 284.472 169.485 270.039L174.251 265.274C152.901 262.577 132.252 253.032 115.858 236.638C99.4636 220.243 89.9182 199.594 87.2218 178.244L82.4562 183.01C68.0238 197.442 68.009 220.846 82.4232 235.261Z" fill="url(#paint2_linear_4_57)"/>
<path fill-rule="evenodd" clip-rule="evenodd" d="M93.7215 93.3085C107.456 79.5742 107.442 57.2978 93.69 43.5461C79.9383 29.7944 57.6619 29.7804 43.9276 43.5146C30.1934 57.2489 30.2074 79.5254 43.9591 93.277C57.7108 107.029 79.9872 107.043 93.7215 93.3085ZM117.352 82.1269L114.107 85.3711C111.779 91.6676 108.109 97.594 103.058 102.645C98.007 107.696 92.1001 111.346 85.7841 113.694L82.5399 116.939C68.1257 131.353 68.1405 154.757 82.573 169.189L87.3386 173.955C90.035 152.605 99.5803 131.956 115.975 115.562C132.369 99.1673 153.018 89.622 174.368 86.9256L169.602 82.16C155.17 67.7275 131.766 67.7127 117.352 82.1269Z" fill="url(#paint3_linear_4_57)"/>
<path d="M514.8 98.6C527.4 98.6 536.433 101.567 541.9 107.5C547.433 113.433 550.2 123.267 550.2 137V191.6C550.2 197.2 547.4 200 541.8 200C536.2 200 533.4 197.2 533.4 191.6V137C533.4 129.4 531.933 123.9 529 120.5C526.133 117.1 521.4 115.4 514.8 115.4H506.6C499 115.4 493.567 117.1 490.3 120.5C487.033 123.9 485.4 129.4 485.4 137V191.6C485.4 197.2 482.6 200 477 200C471.4 200 468.6 197.2 468.6 191.6V137C468.6 129.4 467.133 123.9 464.2 120.5C461.333 117.1 456.6 115.4 450 115.4H441.8C434.2 115.4 428.767 117.1 425.5 120.5C422.233 123.9 420.6 129.4 420.6 137V191.6C420.6 197.2 417.8 200 412.2 200C406.6 200 403.8 197.2 403.8 191.6V107C403.8 101.4 406.6 98.6 412.2 98.6C417.8 98.6 420.6 101.4 420.6 107V111.6C424.133 107 428 103.7 432.2 101.7C436.467 99.6333 441.533 98.6 447.4 98.6H450C458.267 98.6 464.767 99.7667 469.5 102.1C474.233 104.367 477.833 108.067 480.3 113.2C483.833 107.933 487.567 104.2 491.5 102C495.5 99.7333 500.533 98.6 506.6 98.6H514.8ZM601.738 156.2V161C601.738 169.6 603.304 175.467 606.438 178.6C609.571 181.667 615.471 183.2 624.138 183.2H640.538C647.338 183.2 652.371 182.567 655.638 181.3C658.904 180.033 661.071 177.8 662.138 174.6C662.871 172.067 663.871 170.133 665.138 168.8C666.471 167.467 668.471 166.8 671.138 166.8C673.938 166.8 676.071 167.533 677.538 169C679.004 170.467 679.471 172.6 678.938 175.4C677.471 183.667 673.538 189.833 667.138 193.9C660.738 197.967 651.871 200 640.538 200H624.138C610.871 200 601.004 196.8 594.538 190.4C588.138 184 584.938 174.2 584.938 161V137.8C584.938 124.267 588.138 114.333 594.538 108C601.004 101.6 610.871 98.4667 624.138 98.6H640.538C653.871 98.6 663.738 101.8 670.138 108.2C676.538 114.533 679.738 124.4 679.738 137.8V147.8C679.738 153.4 676.938 156.2 671.338 156.2H601.738ZM624.138 115.4C615.471 115.267 609.571 116.767 606.438 119.9C603.304 123.033 601.738 129 601.738 137.8V139.4H662.938V137.8C662.938 129.067 661.371 123.167 658.238 120.1C655.171 116.967 649.271 115.4 640.538 115.4H624.138ZM728.495 156.2V161C728.495 169.6 730.062 175.467 733.195 178.6C736.329 181.667 742.229 183.2 750.895 183.2H767.295C774.095 183.2 779.129 182.567 782.395 181.3C785.662 180.033 787.829 177.8 788.895 174.6C789.629 172.067 790.629 170.133 791.895 168.8C793.229 167.467 795.229 166.8 797.895 166.8C800.695 166.8 802.829 167.533 804.295 169C805.762 170.467 806.229 172.6 805.695 175.4C804.229 183.667 800.295 189.833 793.895 193.9C787.495 197.967 778.629 200 767.295 200H750.895C737.629 200 727.762 196.8 721.295 190.4C714.895 184 711.695 174.2 711.695 161V137.8C711.695 124.267 714.895 114.333 721.295 108C727.762 101.6 737.629 98.4667 750.895 98.6H767.295C780.629 98.6 790.495 101.8 796.895 108.2C803.295 114.533 806.495 124.4 806.495 137.8V147.8C806.495 153.4 803.695 156.2 798.095 156.2H728.495ZM750.895 115.4C742.229 115.267 736.329 116.767 733.195 119.9C730.062 123.033 728.495 129 728.495 137.8V139.4H789.695V137.8C789.695 129.067 788.129 123.167 784.995 120.1C781.929 116.967 776.029 115.4 767.295 115.4H750.895ZM882.147 200C868.947 200 859.214 196.867 852.947 190.6C846.68 184.333 843.547 174.667 843.547 161.6V115.4H833.747C828.147 115.4 825.347 112.6 825.347 107C825.347 101.4 828.147 98.6 833.747 98.6H843.547V84C843.547 78.4 846.347 75.6 851.947 75.6C857.547 75.6 860.347 78.4 860.347 84V98.6H883.347C888.947 98.6 891.747 101.4 891.747 107C891.747 112.6 888.947 115.4 883.347 115.4H860.347V161.6C860.347 170.067 861.88 175.8 864.947 178.8C868.014 181.733 873.747 183.2 882.147 183.2C884.747 183.2 886.78 183.867 888.247 185.2C889.78 186.533 890.547 188.667 890.547 191.6C890.547 197.2 887.747 200 882.147 200ZM928.736 82.2C922.403 82.2 919.236 79 919.236 72.6V66.7C919.236 60.4333 922.403 57.3 928.736 57.3H934.536C940.603 57.3 943.636 60.4333 943.636 66.7V72.6C943.636 79 940.603 82.2 934.536 82.2H928.736ZM931.536 200C925.936 200 923.136 197.2 923.136 191.6V107C923.136 101.4 925.936 98.6 931.536 98.6C937.136 98.6 939.936 101.4 939.936 107V191.6C939.936 197.2 937.136 200 931.536 200ZM989.934 200C984.334 200 981.534 197.2 981.534 191.6V107C981.534 101.4 984.334 98.6 989.934 98.6C995.534 98.6 998.334 101.4 998.334 107V110.3C1005.4 102.5 1015.8 98.6 1029.53 98.6H1035.13C1048.47 98.6 1058.33 101.8 1064.73 108.2C1071.13 114.6 1074.33 124.467 1074.33 137.8V191.6C1074.33 197.2 1071.53 200 1065.93 200C1060.33 200 1057.53 197.2 1057.53 191.6V137.8C1057.53 129.067 1055.93 123.167 1052.73 120.1C1049.6 116.967 1043.73 115.4 1035.13 115.4H1029.53C1021.53 115.4 1014.57 116.333 1008.63 118.2C1002.7 120 999.268 122.867 998.334 126.8V191.6C998.334 197.2 995.534 200 989.934 200ZM1137.96 240C1129.89 240 1123.52 238.367 1118.86 235.1C1114.26 231.833 1111.29 226.867 1109.96 220.2C1109.49 217.4 1109.99 215.2 1111.46 213.6C1112.92 212 1115.16 211.2 1118.16 211.2C1120.69 211.2 1122.52 211.867 1123.66 213.2C1124.86 214.6 1125.89 216.667 1126.76 219.4C1127.56 220.867 1128.79 221.867 1130.46 222.4C1132.19 222.933 1134.69 223.2 1137.96 223.2H1175.16C1180.16 223.2 1183.39 222.4 1184.86 220.8C1186.39 219.267 1187.16 216.067 1187.16 211.2V187.9C1183.56 191.833 1179.09 194.833 1173.76 196.9C1168.49 198.967 1162.56 200 1155.96 200H1148.36C1135.09 200 1125.22 196.8 1118.76 190.4C1112.36 184 1109.16 174.2 1109.16 161V137.8C1109.16 124.4 1112.32 114.533 1118.66 108.2C1125.06 101.8 1134.96 98.6 1148.36 98.6H1164.76C1169.49 98.6 1173.72 99.3 1177.46 100.7C1181.26 102.1 1184.49 104.233 1187.16 107.1V107C1187.16 101.4 1189.96 98.6 1195.56 98.6C1201.16 98.6 1203.96 101.4 1203.96 107V211.2C1203.96 221 1201.59 228.233 1196.86 232.9C1192.19 237.633 1184.96 240 1175.16 240H1137.96ZM1148.36 183.2H1155.96C1164.76 183.2 1172.16 182.1 1178.16 179.9C1184.16 177.7 1187.16 174.2 1187.16 169.4V129.4C1187.16 124 1185.19 120.333 1181.26 118.4C1177.39 116.4 1171.89 115.4 1164.76 115.4H1148.36C1139.76 115.4 1133.86 116.933 1130.66 120C1127.52 123.067 1125.96 129 1125.96 137.8V161C1125.96 169.467 1127.52 175.3 1130.66 178.5C1133.79 181.633 1139.69 183.2 1148.36 183.2ZM1267.44 200C1258.98 200 1252.28 198.267 1247.34 194.8C1242.41 191.267 1239.24 186 1237.84 179C1237.38 176.2 1237.91 174 1239.44 172.4C1241.04 170.8 1243.24 170 1246.04 170C1248.78 170 1250.74 170.7 1251.94 172.1C1253.21 173.433 1254.24 175.467 1255.04 178.2C1255.84 180.2 1257.18 181.533 1259.04 182.2C1260.98 182.867 1263.78 183.2 1267.44 183.2H1300.24C1305.44 183.2 1308.94 182.367 1310.74 180.7C1312.54 178.967 1313.44 175.4 1313.44 170C1313.44 164.667 1312.54 161.133 1310.74 159.4C1308.94 157.667 1305.44 156.8 1300.24 156.8H1268.04C1258.44 156.8 1251.21 154.367 1246.34 149.5C1241.48 144.633 1239.04 137.4 1239.04 127.8C1239.04 118 1241.41 110.7 1246.14 105.9C1250.94 101.033 1258.24 98.6 1268.04 98.6H1299.24C1314.91 98.6 1324.18 105.2 1327.04 118.4C1327.58 121.2 1327.04 123.367 1325.44 124.9C1323.84 126.433 1321.64 127.2 1318.84 127.2C1316.24 127.2 1314.31 126.533 1313.04 125.2C1311.78 123.8 1310.78 121.867 1310.04 119.4C1309.24 117.8 1308.01 116.733 1306.34 116.2C1304.74 115.667 1302.38 115.4 1299.24 115.4H1268.04C1262.98 115.4 1259.68 116.167 1258.14 117.7C1256.61 119.233 1255.84 122.6 1255.84 127.8C1255.84 132.6 1256.64 135.833 1258.24 137.5C1259.91 139.167 1263.18 140 1268.04 140H1300.24C1310.24 140 1317.74 142.5 1322.74 147.5C1327.74 152.5 1330.24 160 1330.24 170C1330.24 180.067 1327.74 187.6 1322.74 192.6C1317.74 197.533 1310.24 200 1300.24 200H1267.44Z" fill="url(#paint4_linear_4_57)"/>
<path d="M902.485 333.7C900.058 333.7 897.958 333.373 896.185 332.72C894.412 332.067 892.778 331.063 891.285 329.71L890.865 333H884.285V285.82H891.915V301.99C894.808 300.077 898.285 299.12 902.345 299.12C907.058 299.12 910.768 300.473 913.475 303.18C916.228 305.84 917.605 310.157 917.605 316.13C917.605 322.15 916.252 326.583 913.545 329.43C910.838 332.277 907.152 333.7 902.485 333.7ZM900.455 327.96C903.908 327.96 906.335 326.98 907.735 325.02C909.182 323.06 909.905 320.097 909.905 316.13C909.905 312.023 909.135 309.13 907.595 307.45C906.055 305.77 903.628 304.93 900.315 304.93C896.862 304.93 894.062 305.887 891.915 307.8V324.46C894.108 326.793 896.955 327.96 900.455 327.96ZM928.689 345.32C926.169 345.32 924.022 344.993 922.249 344.34V338.67C923.042 338.95 923.766 339.137 924.419 339.23C925.119 339.323 925.819 339.37 926.519 339.37C927.966 339.37 929.132 339.137 930.019 338.67C930.906 338.203 931.676 337.457 932.329 336.43C933.029 335.45 933.776 334.167 934.569 332.58L919.799 299.82H927.709L938.349 324.46L949.129 299.82H956.969L943.459 331.11C942.292 333.91 941.032 336.36 939.679 338.46C938.372 340.607 936.832 342.287 935.059 343.5C933.332 344.713 931.209 345.32 928.689 345.32ZM979.168 333V287.92H987.008L1001.29 317.11L1015.5 287.92H1023.34V333H1015.78V300.31L1003.6 325.23H998.978L986.728 300.31V333H979.168ZM1033.17 292.89V286.59H1041.5V292.89H1033.17ZM1033.8 333V305.63H1028.76L1029.46 299.82H1041.43V333H1033.8ZM1050.33 333V299.82H1057.33L1057.68 303.32C1059.17 302.153 1060.95 301.173 1063 300.38C1065.1 299.54 1067.41 299.12 1069.93 299.12C1074.22 299.12 1077.35 300.123 1079.31 302.13C1081.27 304.137 1082.25 307.263 1082.25 311.51V333H1074.69V311.86C1074.69 309.293 1074.15 307.497 1073.08 306.47C1072.05 305.443 1070.09 304.93 1067.2 304.93C1065.47 304.93 1063.77 305.28 1062.09 305.98C1060.46 306.68 1059.08 307.59 1057.96 308.71V333H1050.33ZM1103.84 333.7C1100.85 333.7 1098.21 333.187 1095.93 332.16C1093.64 331.133 1091.87 329.43 1090.61 327.05C1089.35 324.67 1088.72 321.473 1088.72 317.46C1088.72 313.493 1089.39 310.157 1090.75 307.45C1092.1 304.697 1093.97 302.62 1096.35 301.22C1098.77 299.82 1101.5 299.12 1104.54 299.12C1106.54 299.12 1108.32 299.353 1109.86 299.82C1111.44 300.287 1112.96 301.01 1114.41 301.99V285.82H1122.04V333H1115.53L1115.04 329.71C1113.54 331.063 1111.91 332.067 1110.14 332.72C1108.36 333.373 1106.26 333.7 1103.84 333.7ZM1105.87 327.96C1109.27 327.96 1112.12 326.793 1114.41 324.46V307.87C1112.21 305.91 1109.46 304.93 1106.15 304.93C1102.93 304.93 1100.5 306.003 1098.87 308.15C1097.23 310.297 1096.42 313.423 1096.42 317.53C1096.42 321.497 1097.16 324.227 1098.66 325.72C1100.2 327.213 1102.6 327.96 1105.87 327.96ZM1149.06 333.7C1146.63 333.7 1144.53 333.373 1142.76 332.72C1140.98 332.067 1139.35 331.063 1137.86 329.71L1137.44 333H1130.86V285.82H1138.49V301.99C1141.38 300.077 1144.86 299.12 1148.92 299.12C1153.63 299.12 1157.34 300.473 1160.05 303.18C1162.8 305.84 1164.18 310.157 1164.18 316.13C1164.18 322.15 1162.82 326.583 1160.12 329.43C1157.41 332.277 1153.72 333.7 1149.06 333.7ZM1147.03 327.96C1150.48 327.96 1152.91 326.98 1154.31 325.02C1155.75 323.06 1156.48 320.097 1156.48 316.13C1156.48 312.023 1155.71 309.13 1154.17 307.45C1152.63 305.77 1150.2 304.93 1146.89 304.93C1143.43 304.93 1140.63 305.887 1138.49 307.8V324.46C1140.68 326.793 1143.53 327.96 1147.03 327.96ZM1187.49 333.7C1181.52 333.7 1177.13 332.207 1174.33 329.22C1171.58 326.233 1170.2 321.963 1170.2 316.41C1170.2 310.857 1171.6 306.587 1174.4 303.6C1177.2 300.613 1181.56 299.12 1187.49 299.12C1193.46 299.12 1197.85 300.613 1200.65 303.6C1203.45 306.587 1204.85 310.857 1204.85 316.41C1204.85 321.963 1203.45 326.233 1200.65 329.22C1197.9 332.207 1193.51 333.7 1187.49 333.7ZM1187.49 327.26C1190.99 327.26 1193.46 326.42 1194.91 324.74C1196.4 323.013 1197.15 320.237 1197.15 316.41C1197.15 312.583 1196.4 309.83 1194.91 308.15C1193.46 306.47 1190.99 305.63 1187.49 305.63C1184.04 305.63 1181.56 306.47 1180.07 308.15C1178.62 309.83 1177.9 312.583 1177.9 316.41C1177.9 320.237 1178.62 323.013 1180.07 324.74C1181.56 326.42 1184.04 327.26 1187.49 327.26ZM1216.48 333L1207.73 299.82H1215.36L1221.1 323.97L1227.61 303.88V299.82H1233.42L1240.63 323.97L1246.37 299.82H1253.93L1245.25 333H1238.04L1230.97 311.3L1223.76 333H1216.48ZM1269.27 333.7C1266.98 333.7 1264.79 333.537 1262.69 333.21C1260.64 332.883 1258.93 332.487 1257.58 332.02V325.58C1259.17 326.187 1260.92 326.653 1262.83 326.98C1264.74 327.307 1266.56 327.47 1268.29 327.47C1270.9 327.47 1272.77 327.237 1273.89 326.77C1275.01 326.303 1275.57 325.393 1275.57 324.04C1275.57 323.06 1275.22 322.29 1274.52 321.73C1273.87 321.17 1272.86 320.657 1271.51 320.19C1270.2 319.723 1268.52 319.163 1266.47 318.51C1264.51 317.857 1262.81 317.157 1261.36 316.41C1259.91 315.617 1258.79 314.613 1258 313.4C1257.21 312.187 1256.81 310.6 1256.81 308.64C1256.81 305.607 1257.91 303.273 1260.1 301.64C1262.29 299.96 1265.82 299.12 1270.67 299.12C1272.58 299.12 1274.4 299.26 1276.13 299.54C1277.86 299.82 1279.33 300.17 1280.54 300.59V306.96C1279.23 306.447 1277.79 306.05 1276.2 305.77C1274.66 305.49 1273.21 305.35 1271.86 305.35C1269.43 305.35 1267.59 305.56 1266.33 305.98C1265.12 306.4 1264.51 307.24 1264.51 308.5C1264.51 309.807 1265.14 310.74 1266.4 311.3C1267.71 311.813 1269.78 312.537 1272.63 313.47C1275.24 314.263 1277.32 315.103 1278.86 315.99C1280.4 316.877 1281.5 317.95 1282.15 319.21C1282.85 320.423 1283.2 322.01 1283.2 323.97C1283.2 327.237 1282.01 329.687 1279.63 331.32C1277.25 332.907 1273.8 333.7 1269.27 333.7ZM1306.46 333.7C1300.67 333.7 1296.19 332.277 1293.02 329.43C1289.84 326.583 1288.26 322.22 1288.26 316.34C1288.26 311.02 1289.61 306.82 1292.32 303.74C1295.02 300.66 1299.13 299.12 1304.64 299.12C1309.68 299.12 1313.46 300.45 1315.98 303.11C1318.54 305.723 1319.83 309.107 1319.83 313.26V319.42H1295.54C1295.91 322.64 1297.08 324.857 1299.04 326.07C1301 327.283 1303.98 327.89 1308 327.89C1309.68 327.89 1311.4 327.727 1313.18 327.4C1314.95 327.073 1316.49 326.653 1317.8 326.14V331.74C1316.3 332.393 1314.58 332.883 1312.62 333.21C1310.7 333.537 1308.65 333.7 1306.46 333.7ZM1295.54 314.45H1313.11V312.14C1313.11 309.853 1312.48 308.08 1311.22 306.82C1309.96 305.513 1307.83 304.86 1304.85 304.86C1301.3 304.86 1298.85 305.63 1297.5 307.17C1296.19 308.71 1295.54 311.137 1295.54 314.45ZM1327.25 333V299.82H1334.25L1334.67 303.67C1336.26 302.643 1338.15 301.71 1340.34 300.87C1342.54 300.03 1344.71 299.447 1346.85 299.12V304.93C1345.55 305.163 1344.12 305.513 1342.58 305.98C1341.09 306.4 1339.67 306.89 1338.31 307.45C1336.96 307.963 1335.82 308.5 1334.88 309.06V333H1327.25Z" fill="white"/>
<defs>
<linearGradient id="paint0_linear_4_57" x1="309.422" y1="43.5145" x2="222.496" y2="130.44" gradientUnits="userSpaceOnUse">
<stop stop-color="#FF9B32"/>
<stop offset="1" stop-color="#FE0F69"/>
</linearGradient>
<linearGradient id="paint1_linear_4_57" x1="309.318" y1="308.905" x2="222.392" y2="221.979" gradientUnits="userSpaceOnUse">
<stop stop-color="#8526D8"/>
<stop offset="1" stop-color="#2BF7D3"/>
</linearGradient>
<linearGradient id="paint2_linear_4_57" x1="43.8109" y1="308.684" x2="130.736" y2="221.759" gradientUnits="userSpaceOnUse">
<stop stop-color="#FE0C69"/>
<stop offset="1" stop-color="#FFB926"/>
</linearGradient>
<linearGradient id="paint3_linear_4_57" x1="43.9276" y1="43.5146" x2="130.853" y2="130.44" gradientUnits="userSpaceOnUse">
<stop stop-color="#2AF9D3"/>
<stop offset="1" stop-color="#7522C4"/>
</linearGradient>
<linearGradient id="paint4_linear_4_57" x1="400.025" y1="145.215" x2="1115.84" y2="145.215" gradientUnits="userSpaceOnUse">
<stop stop-color="#2CF5D3"/>
<stop offset="0.390625" stop-color="#822ED8"/>
<stop offset="0.6875" stop-color="#FE1367"/>
<stop offset="1" stop-color="#FF9B32"/>
</linearGradient>
</defs>
</svg>
